<?xml version="1.0" encoding="UTF-8" standalone="no"?>
<svg
   xmlns:dc="http://purl.org/dc/elements/1.1/"
   xmlns:cc="http://creativecommons.org/ns#"
   xmlns:rdf="http://www.w3.org/1999/02/22-rdf-syntax-ns#"
   xmlns:svg="http://www.w3.org/2000/svg"
   xmlns="http://www.w3.org/2000/svg"
   xmlns:sodipodi="http://sodipodi.sourceforge.net/DTD/sodipodi-0.dtd"
   xmlns:inkscape="http://www.inkscape.org/namespaces/inkscape"
   version="1.0"
   x="0px"
   y="0px"
   viewBox="0 0 1024 1024"
   enable-background="new 0 0 1024 1024"
   xml:space="preserve"
   id="svg847"
   sodipodi:docname="icon.svg"
   inkscape:version="0.92.2 (5c3e80d, 2017-08-06)"><metadata
     id="metadata853"><rdf:RDF><cc:Work
         rdf:about=""><dc:format>image/svg+xml</dc:format><dc:type
           rdf:resource="http://purl.org/dc/dcmitype/StillImage" /><dc:title></dc:title></cc:Work></rdf:RDF></metadata><defs
     id="defs851" /><sodipodi:namedview
     pagecolor="#ffffff"
     bordercolor="#666666"
     borderopacity="1"
     objecttolerance="10"
     gridtolerance="10"
     guidetolerance="10"
     inkscape:pageopacity="0"
     inkscape:pageshadow="2"
     inkscape:window-width="2560"
     inkscape:window-height="1361"
     id="namedview849"
     showgrid="false"
     inkscape:zoom="0.45254834"
     inkscape:cx="46.864401"
     inkscape:cy="513.26433"
     inkscape:window-x="-9"
     inkscape:window-y="-9"
     inkscape:window-maximized="1"
     inkscape:current-layer="svg847" /><g
     id="g845"
     transform="matrix(12.8,0,0,12.8,-100.69322,-129.65146)"><g
       id="g843"><path
         d="m 77.381836,20.765137 h -6.601563 v -5.509766 c 0,-0.828613 -0.671386,-1.5 -1.5,-1.5 H 20.618164 c -0.828613,0 -1.5,0.671387 -1.5,1.5 v 62.328125 c 0,0.828613 0.671387,1.5 1.5,1.5 h 6.601563 v 6.661133 c 0,0.828613 0.671386,1.5 1.5,1.5 h 48.662109 c 0.828613,0 1.5,-0.671387 1.5,-1.5 V 22.265137 c 0,-0.828614 -0.671387,-1.5 -1.5,-1.5 z m -1.5,3 V 60 H 70.780273 V 23.765137 Z m -8.101563,-7.009766 v 34.664063 h -7.879394 v -1.908203 c 0,-4.737794 -3.380371,-9.126954 -8.038574,-10.436524 -4.135743,-1.161621 -9.692383,-1.161621 -13.826172,0 -4.658203,1.30957 -8.038574,5.698731 -8.038574,10.436524 v 1.908203 H 22.118164 V 16.755371 Z M 32.997559,51.419434 V 49.51123 c 0,-3.420898 2.460449,-6.595703 5.850097,-7.548828 3.648926,-1.024414 8.553223,-1.02539 12.203125,0 3.389649,0.953125 5.850098,4.12793 5.850098,7.548828 v 1.908204 z m -10.879395,3 H 67.780273 V 76.083496 H 22.118164 Z m 8.101563,29.825195 v -5.161133 h 39.060546 c 0.828614,0 1.5,-0.671387 1.5,-1.5 V 63 h 5.101563 v 21.244629 z"
         id="path835"
         inkscape:connector-curvature="0" /><rect
         x="30"
         y="60"
         width="30"
         height="3"
         id="rect837" /><rect
         x="30"
         y="67"
         width="24"
         height="3"
         id="rect839" /><path
         d="m 44.949219,35.816894 c 3.859863,0 7,-3.140136 7,-7 0,-3.859863 -3.140137,-7 -7,-7 -3.859864,0 -7,3.140137 -7,7 0,3.859864 3.140137,7 7,7 z m 0,-11 c 2.205566,0 4,1.794434 4,4 0,2.205567 -1.794434,4.000001 -4,4.000001 -2.205567,0 -4,-1.794434 -4,-4 0,-2.205567 1.794433,-4.000001 4,-4.000001 z"
         id="path841"
         inkscape:connector-curvature="0" /></g></g><!-- <text x="0" y="115" fill="#000000" font-size="5px" font-weight="bold" font-family="'Helvetica Neue', Helvetica, Arial-Unicode, Arial, Sans-serif">Created by Yu luck</text>
    <text x="0" y="120" fill="#000000" font-size="5px" font-weight="bold" font-family="'Helvetica Neue', Helvetica, Arial-Unicode, Arial, Sans-serif">from the Noun Project</text> --><path
     style="fill:#8dd35f;fill-opacity:0;stroke-width:1.0958904"
     d="M 182.70404,307.17044 V 85.800589 h 292.0548 292.05479 V 307.17044 528.54032 H 716.40267 665.9917 v -19.05703 c 0,-27.22772 -3.64937,-44.1961 -13.93196,-64.7786 -7.67742,-15.36782 -14.09941,-24.20787 -27.15347,-37.37759 -27.99603,-28.244 -56.35073,-39.95772 -112.88715,-46.63523 -14.47547,-1.70969 -59.3315,-1.7159 -74.52055,-0.01 -27.35488,3.0717 -50.79304,8.30452 -66.71194,14.89418 -43.33309,17.93778 -75.73521,56.99114 -85.08755,102.55362 -1.64114,7.99518 -2.55056,17.44323 -2.97996,30.9589 l -0.61799,19.45162 H 232.4026 182.70408 Z m 315.90778,18.77503 c 39.79245,-11.76338 65.59121,-45.87274 65.59121,-86.72023 0,-15.50377 -2.46648,-26.03949 -9.36419,-40 -8.90925,-18.03166 -22.92571,-32.03169 -40.62795,-40.58026 -12.99444,-6.27515 -20.50535,-8.1875 -35.12522,-8.94324 -47.44294,-2.4524 -87.65057,31.6008 -93.73403,79.38651 -1.61214,12.66332 -0.0806,26.41784 4.38856,39.42937 10.06392,29.29601 35.63092,51.95066 66.38849,58.82616 10.48714,2.34429 32.24556,1.62811 42.48313,-1.39831 z"
     id="path855"
     inkscape:connector-curvature="0" /><path
     style="fill:#8dd35f;fill-opacity:0;stroke-width:1.0958904"
     d="M 182.70404,705.52662 V 566.89648 h 292.0548 292.05479 V 705.52662 844.15674 H 474.75884 182.70404 Z m 408.76711,41.64382 V 727.99237 H 436.95062 282.43007 v 19.17807 19.17809 h 154.52055 154.52053 z m 76.46364,-89.58904 0.29928,-19.45205 H 475.33205 282.43007 v 18.99543 c 0,10.4475 0.33011,19.32557 0.7337,19.72907 0.40345,0.40347 87.07473,0.60903 192.60273,0.45659 l 191.86909,-0.277 z"
     id="path857"
     inkscape:connector-curvature="0" /><path
     style="fill:#8dd35f;fill-opacity:0;stroke-width:1.0958904"
     d="m 286.81363,915.39657 v -32.86979 l 253.51002,-0.28096 253.51003,-0.28095 3.87,-2.95184 c 2.1285,-1.62351 4.80241,-4.82899 5.94202,-7.12329 1.97663,-3.97937 2.08625,-8.54887 2.38064,-99.23994 l 0.30861,-95.06851 h 31.7462 31.74619 V 812.92378 948.26624 H 578.32048 286.81363 Z"
     id="path859"
     inkscape:connector-curvature="0" /><path
     style="fill:#8dd35f;fill-opacity:0;stroke-width:1.0958904"
     d="M 182.70404,307.17044 V 85.800589 h 292.0548 292.05479 V 307.17044 528.54032 H 716.40267 665.9917 v -19.05703 c 0,-27.22772 -3.64937,-44.1961 -13.93196,-64.7786 -7.67742,-15.36782 -14.09941,-24.20787 -27.15347,-37.37759 -27.99603,-28.244 -56.35073,-39.95772 -112.88715,-46.63523 -14.47547,-1.70969 -59.3315,-1.7159 -74.52055,-0.01 -27.35488,3.0717 -50.79304,8.30452 -66.71194,14.89418 -43.33309,17.93778 -75.73521,56.99114 -85.08755,102.55362 -1.64114,7.99518 -2.55056,17.44323 -2.97996,30.9589 l -0.61799,19.45162 H 232.4026 182.70408 Z m 315.90778,18.77503 c 39.79245,-11.76338 65.59121,-45.87274 65.59121,-86.72023 0,-15.50377 -2.46648,-26.03949 -9.36419,-40 -8.90925,-18.03166 -22.92571,-32.03169 -40.62795,-40.58026 -12.99444,-6.27515 -20.50535,-8.1875 -35.12522,-8.94324 -47.44294,-2.4524 -87.65057,31.6008 -93.73403,79.38651 -1.61214,12.66332 -0.0806,26.41784 4.38856,39.42937 10.06392,29.29601 35.63092,51.95066 66.38849,58.82616 10.48714,2.34429 32.24556,1.62811 42.48313,-1.39831 z"
     id="path861"
     inkscape:connector-curvature="0" /><path
     style="fill:#faebd7;fill-opacity:1;stroke-width:1.0958904"
     d="M 182.70404,307.17044 V 85.800589 h 292.0548 292.05479 V 307.17044 528.54032 H 716.40267 665.9917 v -19.05703 c 0,-27.22772 -3.64937,-44.1961 -13.93196,-64.7786 -7.67742,-15.36782 -14.09941,-24.20787 -27.15347,-37.37759 -27.99603,-28.244 -56.35073,-39.95772 -112.88715,-46.63523 -14.47547,-1.70969 -59.3315,-1.7159 -74.52055,-0.01 -27.35488,3.0717 -50.79304,8.30452 -66.71194,14.89418 -43.33309,17.93778 -75.73521,56.99114 -85.08755,102.55362 -1.64114,7.99518 -2.55056,17.44323 -2.97996,30.9589 l -0.61799,19.45162 H 232.4026 182.70408 Z m 315.90778,18.77503 c 39.79245,-11.76338 65.59121,-45.87274 65.59121,-86.72023 0,-15.50377 -2.46648,-26.03949 -9.36419,-40 -8.90925,-18.03166 -22.92571,-32.03169 -40.62795,-40.58026 -12.99444,-6.27515 -20.50535,-8.1875 -35.12522,-8.94324 -47.44294,-2.4524 -87.65057,31.6008 -93.73403,79.38651 -1.61214,12.66332 -0.0806,26.41784 4.38856,39.42937 10.06392,29.29601 35.63092,51.95066 66.38849,58.82616 10.48714,2.34429 32.24556,1.62811 42.48313,-1.39831 z"
     id="path863"
     inkscape:connector-curvature="0" /><path
     style="fill:#faebd7;fill-opacity:1;stroke-width:1.0958904"
     d="M 182.70404,705.52662 V 566.89648 h 292.0548 292.05479 V 705.52662 844.15674 H 474.75884 182.70404 Z m 408.76711,41.64382 V 727.99237 H 436.95062 282.43007 v 19.17807 19.17809 h 154.52055 154.52053 z m 76.46364,-89.58904 0.29928,-19.45205 H 475.33205 282.43007 v 18.99543 c 0,10.4475 0.33011,19.32557 0.7337,19.72907 0.40345,0.40347 87.07473,0.60903 192.60273,0.45659 l 191.86909,-0.277 z"
     id="path865"
     inkscape:connector-curvature="0" /><path
     style="fill:#87ceeb;fill-opacity:1;stroke-width:1.0958904"
     d="m 286.81363,915.39657 v -32.86979 l 253.51002,-0.28096 253.51003,-0.28095 3.87,-2.95184 c 2.1285,-1.62351 4.80241,-4.82899 5.94202,-7.12329 1.97663,-3.97937 2.08625,-8.54887 2.38064,-99.23994 l 0.30861,-95.06851 h 31.7462 31.74619 V 812.92378 948.26624 H 578.32048 286.81363 Z"
     id="path867"
     inkscape:connector-curvature="0" /><path
     style="fill:#87ceeb;fill-opacity:1;stroke-width:1.0958904"
     d="M 182.70404,306.6225 V 84.704689 h 292.0548 292.05479 V 306.6225 528.54032 H 716.40267 665.9917 V 509.2604 c 0,-15.014 -0.4887,-21.6782 -2.20887,-30.11908 -10.17818,-49.94512 -47.28295,-91.6138 -95.65554,-107.42124 -29.29306,-9.57251 -77.4655,-14.5951 -115.28626,-12.02004 -61.7915,4.20713 -95.75805,16.24536 -125.31493,44.41341 -16.69533,15.91087 -27.76506,32.28688 -35.68181,52.78597 -5.82921,15.09372 -8.37105,29.65047 -9.11304,52.18883 l -0.64038,19.45207 h -49.69343 -49.69341 z m 308.12278,20.89347 c 28.68098,-5.60764 51.40173,-22.74743 64.0149,-48.29073 6.85417,-13.88057 9.31942,-24.46174 9.31942,-40 0,-15.53825 -2.46525,-26.11941 -9.31942,-40 -11.13783,-22.55557 -31.59975,-39.61215 -55.9733,-46.65804 -11.29285,-3.26453 -29.46469,-3.98303 -41.11735,-1.62575 -35.06732,7.09395 -62.43274,33.43174 -70.80427,68.14535 -2.4119,10.0013 -2.42216,30.23417 -0.0205,40.189 6.54647,27.13354 25.18607,49.97722 50.19923,61.52143 16.87199,7.78685 35.99879,10.17989 53.70116,6.71874 z"
     id="path869"
     inkscape:connector-curvature="0" /><path
     style="fill:#faebd7;fill-opacity:1;stroke-width:1.0958904"
     d="M 806.26568,406.34853 V 174.5677 h 31.78082 31.78083 V 406.34853 638.12935 H 838.0465 806.26568 Z"
     id="path871"
     inkscape:connector-curvature="0" /><path
     style="fill:#faebd7;fill-opacity:1;stroke-width:1.0958904"
     d="M 286.81363,915.38963 V 882.5129 l 252.60275,-0.13696 c 138.9315,-0.0755 252.97259,-0.19942 253.42465,-0.27571 2.45275,-0.41381 8.26449,-5.77995 10.0495,-9.27889 1.943,-3.80857 2.09895,-9.22487 2.86892,-99.63374 l 0.8142,-95.60622 h 31.62683 31.62682 V 812.92385 948.26632 H 578.32048 286.81363 Z"
     id="path4562"
     inkscape:connector-curvature="0" /><path
     style="fill:#87ceeb;fill-opacity:1;stroke-width:1.0958904"
     d="M 805.16979,406.34853 V 174.5677 h 32.32878 32.32876 v 231.78083 231.78082 h -32.32876 -32.32878 z"
     id="path4564"
     inkscape:connector-curvature="0" /><path
     style="fill:#3cb371;fill-opacity:1;stroke-width:1.0958904"
     d="m 322.17477,509.08825 c 0.6889,-22.79716 2.55628,-31.47606 10.11618,-47.01743 10.58009,-21.75018 30.0594,-40.40849 51.88108,-49.69445 32.40761,-13.79068 96.39329,-18.13324 144.28544,-9.79233 35.30335,6.14844 57.5173,17.46523 74.57868,37.99375 17.61275,21.19196 24.56629,42.57923 24.59042,75.63376 l 0.009,12.32877 H 474.61123 321.5869 Z"
     id="path4566"
     inkscape:connector-curvature="0" /><path
     style="fill:#3cb371;fill-opacity:1;stroke-width:1.0958904"
     d="m 459.7426,287.52025 c -24.07436,-7.69751 -39.19412,-31.93566 -35.0385,-56.16942 2.84654,-16.59973 13.05742,-30.25914 28.22252,-37.75414 7.07283,-3.49559 9.3355,-4.0548 18.30436,-4.52394 16.71949,-0.8745 28.79117,3.7489 39.7291,15.21618 11.16891,11.70942 16.37905,27.82775 13.75016,42.53811 -2.59987,14.54805 -12.295,29.08931 -23.94789,35.91836 -11.68508,6.84792 -28.43732,8.79794 -41.01975,4.77485 z"
     id="path4568"
     inkscape:connector-curvature="0" /></svg>