<svg xmlns="http://www.w3.org/2000/svg" xmlns:xlink="http://www.w3.org/1999/xlink" version="1.0" x="0px" y="0px" viewBox="0 0 100 125" enable-background="new 0 0 100 100" xml:space="preserve">
    <g>
        <g>
            <path d="M77.3818359,20.7651367h-6.6015625v-5.5097656c0-0.8286133-0.6713867-1.5-1.5-1.5H20.6181641    c-0.8286133,0-1.5,0.6713867-1.5,1.5v62.328125c0,0.8286133,0.6713867,1.5,1.5,1.5h6.6015625v6.6611328    c0,0.8286133,0.6713867,1.5,1.5,1.5h48.6621094c0.8286133,0,1.5-0.6713867,1.5-1.5V22.2651367    C78.8818359,21.4365234,78.2104492,20.7651367,77.3818359,20.7651367z M75.8818359,23.7651367V60h-5.1015625V23.7651367    H75.8818359z M67.7802734,16.7553711v34.6640625h-7.8793945v-1.9082031c0-4.737793-3.3803711-9.1269531-8.0385742-10.4365234    c-4.1357422-1.1616211-9.6923828-1.1616211-13.8261719,0c-4.6582031,1.3095703-8.0385742,5.6987305-8.0385742,10.4365234    v1.9082031h-7.8793945V16.7553711H67.7802734z M32.9975586,51.4194336v-1.9082031    c0-3.4208984,2.4604492-6.5957031,5.8500977-7.5488281c3.6489258-1.0244141,8.5532227-1.0253906,12.203125,0    c3.3896484,0.953125,5.8500977,4.1279297,5.8500977,7.5488281v1.9082031H32.9975586z M22.1181641,54.4194336h45.6621094    v21.6640625H22.1181641V54.4194336z M30.2197266,84.2446289v-5.1611328h39.0605469c0.8286133,0,1.5-0.6713867,1.5-1.5V63    h5.1015625v21.2446289H30.2197266z"/>
            <rect x="30" y="60" width="30" height="3"/>
            <rect x="30" y="67" width="24" height="3"/>
            <path d="M44.9492188,35.8168945c3.8598633,0,7-3.1401367,7-7s-3.1401367-7-7-7s-7,3.1401367-7,7    S41.0893555,35.8168945,44.9492188,35.8168945z M44.9492188,24.8168945c2.2055664,0,4,1.7944336,4,4s-1.7944336,4-4,4    s-4-1.7944336-4-4S42.7436523,24.8168945,44.9492188,24.8168945z"/>
        </g>
    </g>
    <!-- <text x="0" y="115" fill="#000000" font-size="5px" font-weight="bold" font-family="'Helvetica Neue', Helvetica, Arial-Unicode, Arial, Sans-serif">Created by Yu luck</text>
    <text x="0" y="120" fill="#000000" font-size="5px" font-weight="bold" font-family="'Helvetica Neue', Helvetica, Arial-Unicode, Arial, Sans-serif">from the Noun Project</text> -->
</svg>